<?xml version="1.0" encoding="UTF-8" standalone="no"?>
<svg
   xmlns:dc="http://purl.org/dc/elements/1.1/"
   xmlns:cc="http://creativecommons.org/ns#"
   xmlns:rdf="http://www.w3.org/1999/02/22-rdf-syntax-ns#"
   xmlns:svg="http://www.w3.org/2000/svg"
   xmlns="http://www.w3.org/2000/svg"
   xmlns:sodipodi="http://sodipodi.sourceforge.net/DTD/sodipodi-0.dtd"
   xmlns:inkscape="http://www.inkscape.org/namespaces/inkscape"
   inkscape:version="0.92.4 (unknown)"
   inkscape:export-ydpi="410.19"
   inkscape:export-xdpi="410.19"
   inkscape:export-filename="/Users/rael/Downloads/prometheus-exporter.png"
   sodipodi:docname="prometheus-exporter-3scale-new.svg"
   id="svg843"
   preserveAspectRatio="xMidYMid meet"
   viewBox="0 0 736.42578 619.74847"
   height="619.74847pt"
   width="736.42578pt"
   version="1.0">
  <metadata
     id="metadata849">
    <rdf:RDF>
      <cc:Work
         rdf:about="">
        <dc:format>image/svg+xml</dc:format>
        <dc:type
           rdf:resource="http://purl.org/dc/dcmitype/StillImage" />
      </cc:Work>
    </rdf:RDF>
  </metadata>
  <defs
     id="defs847" />
  <sodipodi:namedview
     inkscape:current-layer="svg843"
     inkscape:window-maximized="1"
     inkscape:window-y="27"
     inkscape:window-x="0"
     inkscape:cy="357.04717"
     inkscape:cx="374.3797"
     inkscape:zoom="0.68778224"
     inkscape:lockguides="true"
     showgrid="false"
     id="namedview845"
     inkscape:window-height="1376"
     inkscape:window-width="2560"
     inkscape:pageshadow="2"
     inkscape:pageopacity="0"
     guidetolerance="10"
     gridtolerance="10"
     objecttolerance="10"
     borderopacity="1"
     inkscape:document-rotation="0"
     bordercolor="#666666"
     pagecolor="#ffffff" />
  <path
     d="m 715.10386,31.748476 c -11.5,4.9 -27.3,11.5 -35,14.7 -20.6,8.7 -50,21.1 -66.5,28.1 -17.5,7.5 -38.1,16.2 -71.3,30.000004 -13.6,5.7 -24.6,10.7 -24.5,11.1 0.2,0.3 10.7,9.4 23.3,20.1 12.7,10.8 24.9,21.3 27.2,23.4 l 4.3,3.9 -6.7,7.5 c -31.9,36.1 -81.5,86.9 -112.8,115.7 -110.6,101.6 -222.4,170.2 -327,200.8 -14.7,4.3 -41.100001,10.6 -49.500001,11.8 -1.9,0.3 -6.4,1 -10,1.5 -3.6,0.6 -9.4,1.4 -13,1.7 -3.6,0.4 -9.4,1 -13,1.5 -3.6,0.4 -14.2,0.7 -23.7,0.6 -9.5000003,-0.1 -17.10000032,0 -16.90000032,0.1 1.40000002,1.4 38.30000032,6.9 56.00000032,8.3 11.5,1 53.500001,1.3 64.100001,0.5 2.8,-0.2 9.3,-0.6 14.5,-1 5.2,-0.3 10.6,-0.8 12,-1 1.4,-0.2 5.2,-0.7 8.5,-1 37.4,-3.9 85.6,-14.9 126.5,-29.1 91.4,-31.6 177.1,-82.9 261,-156.5 20.5,-17.9 68.1,-65.2 86.4,-85.7 l 12.8,-14.2 1.8,2.2 c 0.9,1.3 10.8,14 21.9,28.3 11.1,14.3 20.5,26.1 21,26.3 0.4,0.1 1.5,-3.7 2.5,-8.5 0.9,-4.9 6.4,-33.1 12.1,-62.8 5.7,-29.7 12.9,-67.1 16,-83 17,-87.800004 19.6,-101.700004 19.3,-102.900004 -0.2,-0.8 -8,2 -21.3,7.6 z"
     id="path835"
     inkscape:connector-curvature="0"
     style="fill:#5a5a5a;fill-opacity:1;stroke:none;stroke-width:0.1" />
  <path
     d="m 22.203859,156.54848 c 2,15 19.6,69.6 25,77.5 0.8,1.1 1.4,2.5 1.4,3.3 0,0.7 2,5.4 4.5,10.4 2.5,5 4.5,9.5 4.5,9.9 0,1.1 15.5,29.4 23,41.9 9.3,15.7 36.100001,54.8 38.900001,57 0.4,0.3 1.8,2.1 3.1,4 1.3,1.9 2.7,3.7 3,4 0.3,0.3 2.4,2.7 4.5,5.5 2.2,2.7 4.2,5.2 4.5,5.5 0.3,0.3 3.4,3.9 7,8 11.8,13.7 17.2,19.3 38.8,40.7 11.8,11.7 22.1,21.3 22.7,21.3 1.7,0 63.9,-34.7 64.3,-35.8 0.1,-0.5 -4.8,-4 -11,-7.7 -81.6,-49.3 -156.600001,-117 -198.500001,-179.5 -15.3,-22.8 -27,-45.3 -35.2,-67.5 -1,-2.7 -1,-2.6 -0.5,1.5 z"
     id="path837"
     inkscape:connector-curvature="0"
     style="fill:#ec7a08;fill-opacity:1;stroke:none;stroke-width:0.1" />
  <path
     d="m 318.30386,479.44848 c -26.8,9.7 -48.7,17.9 -48.7,18.3 0,1.2 31.5,21.6 52.8,34.2 54,32 129.9,66 190.2,85.1 l 8.5,2.7 27,-0.6 c 25.9,-0.6 27.8,-0.8 48,-4.6 40.5,-7.6 68.7,-17.9 89.2,-32.6 6.1,-4.3 10.9,-8.1 10.7,-8.4 -1.4,-1.4 -52.8,-16 -89.4,-25.4 -14,-3.7 -26.4,-7 -27.5,-7.5 -1.1,-0.5 -6.1,-1.8 -11.1,-3 -10,-2.3 -64.4,-20.3 -90.7,-30 -30.8,-11.4 -72.2,-28.5 -104.7,-43.4 l -5.6,-2.5 z"
     id="path839"
     inkscape:connector-curvature="0"
     style="fill:#ec7a08;fill-opacity:1;stroke:none;stroke-width:0.1" />
</svg>
